<svg width="70" height="71" viewBox="0 0 70 71" fill="none" xmlns="http://www.w3.org/2000/svg">
<g id="upload-cloud-icon">
<g id="Group">
<path id="Vector" d="M46.6667 47.4492L35 35.7825L23.3334 47.4492" stroke="#2A2626" stroke-opacity="0.4" stroke-width="2.95292" stroke-linecap="round" stroke-linejoin="round"/>
<path id="Vector_2" d="M35 35.7825V62.0325" stroke="#2A2626" stroke-opacity="0.4" stroke-width="2.95292" stroke-linecap="round" stroke-linejoin="round"/>
<path id="Vector_3" d="M59.4708 54.42C62.3156 52.8691 64.5628 50.415 65.858 47.4451C67.1531 44.4752 67.4223 41.1586 66.6231 38.0187C65.8239 34.8787 64.0018 32.0944 61.4445 30.105C58.8871 28.1157 55.74 27.0346 52.5 27.0325H48.825C47.9422 23.6178 46.2967 20.4476 44.0124 17.7604C41.728 15.0731 38.8641 12.9387 35.6361 11.5176C32.4081 10.0965 28.8999 9.4256 25.3753 9.55547C21.8507 9.68533 18.4015 10.6125 15.2868 12.2673C12.1721 13.9221 9.47308 16.2615 7.39265 19.1096C5.31223 21.9577 3.90452 25.2403 3.27536 28.7107C2.64621 32.1811 2.81198 35.749 3.76021 39.1462C4.70844 42.5433 6.41446 45.6812 8.75001 48.3241" stroke="#2A2626" stroke-opacity="0.4" stroke-width="2.95292" stroke-linecap="round" stroke-linejoin="round"/>
<path id="Vector_4" d="M46.6667 47.4492L35 35.7825L23.3334 47.4492" stroke="#2A2626" stroke-opacity="0.4" stroke-width="2.95292" stroke-linecap="round" stroke-linejoin="round"/>
</g>
</g>
</svg>
